<svg xmlns="http://www.w3.org/2000/svg" viewBox="0 0 288.5 288.5"><defs><style>.cls-1{fill:none;stroke:#42210b;stroke-linecap:round;stroke-linejoin:round;stroke-width:0.5px;}</style></defs><title>LIDA</title><g id="Слой_2" data-name="Слой 2"><g id="Слой_4" data-name="Слой 4"><path class="cls-1" d="M115.14,78.89c3.14-1.12,12.31-2.75,14.48.69,1.42,2.27-.65,2.6-4.36,2.69-4.33.11-6-1.07-10.14-.41s-13.35,6.64-13.35,6.64S109.13,81,115.14,78.89Z"/><path class="cls-1" d="M135.14,102.62s-3.38,2.13-2.37,5.16,3.09,2.71,4.13,2.54"/><path class="cls-1" d="M137.69,108.6a9.22,9.22,0,0,1,5.11-1.35c3.19,0,3.44,1.59,3.44,1.59,2.68.1,4.94-2.39,5.73-4.11s.63-2.76-1.42-5.63-9.36-8.62-10.62-13.21,6-12.13,6-12.13"/><path class="cls-1" d="M130.92,112.87c-.44.6-.3,4.83-1.17,6s-2.89,5.25-2.21,6.2"/><path class="cls-1" d="M137.14,123.55c1.61-.38,3.12-.45,4.42-.67a36.37,36.37,0,0,0,6.14-1.51,22.21,22.21,0,0,0,6.34-3.66c.16,1,.47,6.35-4.63,7.69s-5.15,1.64-7.79,1.2c-1.64-.27-4-1.5-8.88-2.3"/><path class="cls-1" d="M132.67,123.16a.15.15,0,0,1-.14-.27c1.84-1.56,8.86-6.43,11.07-7.25,2.51-.93,4.75-.22,5.27-.3s1.39-1.29,2.43-1.46,2.76.63,2.84,1.15.25,1.56-1.31,1.8-3.55,1.1-5.1,1.35c-1.16.18-5,1.86-7.54,2.79C138.21,121.71,134.11,122.78,132.67,123.16Z"/><path class="cls-1" d="M93.58,125.72s11.08,9.42,19.52,12.33c6.46,2.23,20.78,6.81,25,6.67S146,144,148,143.15s4-1.7,5.3-3.5,1.33-5,2-7.25,3.21-13.28,4-15c0,0,4.16-14-2.07-23.08"/><path class="cls-1" d="M134.23,172.36a73,73,0,0,1,1.05-12.25c1.15-5.76,3.95-15,3.95-15"/><path class="cls-1" d="M111.47,67.54a1.49,1.49,0,0,0,2.41,1.74"/><path class="cls-1" d="M83.44,118.82c1.78,4.51,9.3,4.91,9.57,3.27"/><circle class="cls-1" cx="87.84" cy="119.72" r="1.58"/><path class="cls-1" d="M70.35,217.22s9.28,18.21,18.35,18.36,22.11,1.81,27.09-17.07S108.5,176,98,170.25,82.67,164.17,77.65,166s-16.81,18.1-13.36,29.79S70.35,217.22,70.35,217.22Z"/><path class="cls-1" d="M117,189.57s18.94,32.11,22.15,42.24,7.07,24.42,10.88,35"/><path class="cls-1" d="M165.35,269.16S153.68,246,151.84,237.78,130,187.51,124.71,180.9s-39.56-24.57-42.4-25.71-6.59,2.11-6.59,2.11"/><path class="cls-1" d="M73.89,252.84s14.79,9.35,27.6,6.25,30.9-19.81,31.45-23.09"/><path class="cls-1" d="M151.84,119.21c-2.64,2.1-17.2,3.71-17.2,3.71"/><path class="cls-1" d="M152.47,107.85a4.49,4.49,0,0,1,1.62.61,4.88,4.88,0,0,1,2.1,2.77,7.36,7.36,0,0,1,.3,1.83"/><path class="cls-1" d="M139.22,135s1.31-1.8,5.9-3.06"/><path class="cls-1" d="M139.41,109.39a5.89,5.89,0,0,0,4.24-.14"/><path class="cls-1" d="M125.83,90.76a.66.66,0,0,0,.14-1.19c-2.12-1.4-2.78-1.62-6.44-1.5-3.19.11-6.08,3.74-7.21,5.39a.28.28,0,0,0,.37.41l.27-.14a3.92,3.92,0,0,1,2-.43,14.48,14.48,0,0,0,5.29-.56C121.93,92.13,124.37,91.27,125.83,90.76Z"/><path class="cls-1" d="M110.41,94.31s3.32-5.85,6.36-6.86,4.5-1.78,6.74-1.07a12.08,12.08,0,0,1,4.13,2.53"/><path class="cls-1" d="M128.66,91.94s-8.93,4.08-11.09,3.89a42.82,42.82,0,0,1-4.92-.81"/><path class="cls-1" d="M118.49,88.24a6.14,6.14,0,0,1,1.15,2.21,4.14,4.14,0,0,1-.43,2.61"/><polyline class="cls-1" points="113.91 91.41 118.57 88.76 112.63 93.07 119.25 89.71 113.47 93.49 119.61 90.59 116.12 93.41 119.58 92.06"/><path class="cls-1" d="M91.46,109s2.57,2.79,8.78,5,6.78,5.84,6.78,5.84"/><path class="cls-1" d="M128.3,139.89a19.64,19.64,0,0,0,12.92,4.33"/><path class="cls-1" d="M146.89,79.47c-2.95,1.53-5.4,6.18-5.4,6.18s1.72.79,7.27-1.16"/><polyline class="cls-1" points="146.46 80.07 147.06 80.5 144.96 81.5 147.22 81.54 143.71 82.9 147.91 82.5 142.58 84.14 148.07 83.53 142.21 85.13 147.2 84.74"/><path class="cls-1" d="M53.42,107.89s-7.1,25.72-1.76,64.83"/><path class="cls-1" d="M61,164.53s-7.5,14.34-8.39,29.69c-.82,14.11,2.17,52.56,2.17,52.56"/><path class="cls-1" d="M74.32,258.08s14.79,9.35,27.6,6.25,30.91-19.81,31.45-23.09"/><circle class="cls-1" cx="144.25" cy="144.25" r="144"/></g><g id="Hair"><path class="cls-1" d="M103.69,50.42s.9-4.4-14.83-3"/><path class="cls-1" d="M116.78,45.67S146.64,26,162.19,50.16s-9.69,30.53-9.69,30.53"/><path class="cls-1" d="M99.51,44.16s28.23-19.92,41-9.71,14.91,16.93,14.78,22.8"/><path class="cls-1" d="M81.45,44.37s11.09-15.45,24.82-14.58c15.58,1,25.13,2,37.14,12.71,3.78,3.38,8.25,7.25,11.3,13.48,2.5,5.11,3.34,12.15,7.29,19.75,21.87,42.08,16.37,62.85,23.92,93.58,0,0,3.11,17.86,8,32s8.76,41.71.2,54.78"/><path class="cls-1" d="M116.78,50.73c1-.69,10.57-3.81,15.57-2.48s9.3,4.91,10,9.06S147,80,150,85.36s8.78,15.1,9.11,17.18"/><path class="cls-1" d="M93.17,42.78s29.53-20.66,46-4.4,11.47,31.44,13,41.3,9.57,13.37,11.31,24.27-6.73,44.71,11.32,91.32,26.3,65,24.24,75.44"/><path class="cls-1" d="M152.18,146.2s-3.15,17,17.58,63.72"/><path class="cls-1" d="M102.77,53s2,2.86-5.16,7.73-9.36,4.69-9.22,8.92,2.11,6.58,3,8.58-1.8,8.8-3.9,12.32"/><path class="cls-1" d="M176.32,257.84c-5.93-27.26-34.9-58.84-34.9-58.84s-2.9-4.86-44.13-36.62c-38.92-30-49.81-99-15-111"/><path class="cls-1" d="M71.39,43.05s-10.62.09-11.3,9.24.76,14.78,1.69,17.29"/><path class="cls-1" d="M93.25,134.25c8,17,23.22,18.89,35,31.75,2,2.11,3.91,4.25,5.83,6.35l5,5.44c4.39,4.84,8.31,9.21,11,12.38,11.73,13.56,23.36,29.8,29.26,50.15s3.25,27.16,3.25,27.16"/><path class="cls-1" d="M74.26,41c5.21-4,12.4-5.69,12.4-5.69"/><path class="cls-1" d="M98.43,55.78s-27.82-.9-28.72,26.91"/><path class="cls-1" d="M85.76,63.11c.16,1-18.57,33.82,6.75,79.28"/><path class="cls-1" d="M59.06,57.51s-13.94,21.11,1.82,63.3c13.66,36.59,3.57,42.54,3.57,42.54"/><path class="cls-1" d="M143.23,153.48s-2.83,9-1.16,16.15,3.65,14.58,3.65,14.58"/><line class="cls-1" x1="146.47" y1="119.41" x2="146.8" y2="120.18"/><line class="cls-1" x1="143.9" y1="120.15" x2="144.22" y2="120.92"/><line class="cls-1" x1="141.28" y1="120.37" x2="141.6" y2="121.13"/><line class="cls-1" x1="149.29" y1="118.39" x2="149.37" y2="119.44"/><line class="cls-1" x1="151.86" y1="117.65" x2="151.95" y2="118.7"/><path class="cls-1" d="M94.23,94.94s2.1,12.09-1,10"/></g></g></svg>