<?xml version="1.0" encoding="UTF-8"?>
<svg width="36px" height="30px" viewBox="0 0 36 30" version="1.1" xmlns="http://www.w3.org/2000/svg" xmlns:xlink="http://www.w3.org/1999/xlink">
    <!-- Generator: Sketch 51.3 (57544) - http://www.bohemiancoding.com/sketch -->
    <title>Shape</title>
    <desc>Created with Sketch.</desc>
    <defs></defs>
    <g id="Page-1" stroke="none" stroke-width="1" fill="none" fill-rule="evenodd">
        <path d="M33.9763981,12.1276098 L34.0325932,12.1399024 L9.94303223,12.1399024 L17.5159103,4.55034146 C17.8867395,4.17980488 18.0901542,3.67785366 18.0901542,3.15102439 C18.0901542,2.62419512 17.8867395,2.1257561 17.5159103,1.75434146 L16.3375688,0.575414634 C15.9670322,0.204878049 15.4732761,0 14.9467395,0 C14.4199103,0 13.9258615,0.203414634 13.5553249,0.57395122 L0.573959061,13.5541463 C0.201959061,13.9261463 -0.00145557326,14.4216585 7.84137531e-06,14.9487805 C-0.00145557326,15.4788293 0.201959061,15.9746341 0.573959061,16.3460488 L13.5553249,29.3274146 C13.9258615,29.6976585 14.4196176,29.9013659 14.9467395,29.9013659 C15.4732761,29.9013659 15.9670322,29.6973659 16.3375688,29.3274146 L17.5159103,28.1484878 C17.8867395,27.7785366 18.0901542,27.2844878 18.0901542,26.7576585 C18.0901542,26.231122 17.8867395,25.763122 17.5159103,25.392878 L9.85756882,17.760878 L34.0033249,17.760878 C35.0883005,17.760878 36.0000078,16.8257561 36.0000078,15.7413659 L36.0000078,14.0739512 C36.0000078,12.989561 35.0613737,12.1276098 33.9763981,12.1276098 Z" id="Shape" fill="#000000" fill-rule="nonzero"></path>
    </g>
</svg>