<svg xmlns="http://www.w3.org/2000/svg" viewBox="0 0 500 300">
  <defs>
    <style>
      .cls-1 {
        fill: #ccf0f0;
      }
      .cls-2 {
        fill: #f5ffff;
      }
      .cls-3 {
        fill: #97becf;
      }
      .cls-4 {
        fill: #3e9d5b;
      }
    </style>
  </defs>
  <title>borjomi</title>

    <g id="Слой_1-2" data-name="Слой 1"><rect class="cls-1" width="500" height="300"/><polygon
      class="cls-2"
      points="113.1 177.2 187.36 195.37 217.71 150.21 259.55 170.93 256.06 110.66 343.4 187.51 369.67 172.82 389.84 204.06 500 221.71 500 183.19 429.78 170.43 390.16 183.74 372.11 162.46 348.4 169.37 252.93 92.14 161.31 171.81 112.75 161.82 65.16 185.5 39.39 170.43 0 185.5 0 256.26 102.41 256.26 113.1 177.2"/><polygon class="cls-3" points="113.1 177.2 187.36 195.37 217.71 150.21 259.55 170.93 256.06 110.66 343.4 187.51 369.67 172.82 391.39 200.95 500 208.75 500 256.26 0 256.26 113.1 177.2"/><polygon class="cls-4" points="0 204.96 83.19 227.97 111.54 235.05 173.38 217.35 248.11 210.27 303.52 231.51 382.11 242.13 419.47 227.97 500 241.54 500 300 0 300 0 204.96"/></g>

</svg>
