<?xml version="1.0" encoding="UTF-8"?>
<svg width="25px" height="25px" viewBox="0 0 25 25" version="1.1" xmlns="http://www.w3.org/2000/svg" xmlns:xlink="http://www.w3.org/1999/xlink">
    <!-- Generator: Sketch 51.3 (57544) - http://www.bohemiancoding.com/sketch -->
    <title>Combined Shape</title>
    <desc>Created with Sketch.</desc>
    <defs></defs>
    <g id="Page-1" stroke="none" stroke-width="1" fill="none" fill-rule="evenodd">
        <path d="M12.8578644,9.88789089 L21.2727892,1.47296602 C22.0929248,0.652830494 23.4226272,0.652830494 24.2427627,1.47296602 C25.0628983,2.29310156 25.0628983,3.62280398 24.2427627,4.44293951 L15.8278379,12.8578644 L24.2427627,21.2727892 C25.0628983,22.0929248 25.0628983,23.4226272 24.2427627,24.2427627 C23.4226272,25.0628983 22.0929248,25.0628983 21.2727892,24.2427627 L12.8578644,15.8278379 L4.44293951,24.2427627 C3.62280398,25.0628983 2.29310156,25.0628983 1.47296602,24.2427627 C0.652830494,23.4226272 0.652830494,22.0929248 1.47296602,21.2727892 L9.88789089,12.8578644 L1.47296602,4.44293951 C0.652830494,3.62280398 0.652830494,2.29310156 1.47296602,1.47296602 C2.29310156,0.652830494 3.62280398,0.652830494 4.44293951,1.47296602 L12.8578644,9.88789089 Z" id="Combined-Shape" fill="#FFFFFF"></path>
    </g>
</svg>