<svg xmlns="http://www.w3.org/2000/svg" viewBox="0 0 500 300">
  <defs>
    <style>
      .cls-1 {
        fill: #e1ffba;
      }
      .cls-2 {
        fill: #adcd11;
      }
      .cls-3 {
        fill: #00286f;
      }
      .cls-4 {
        fill: #fff;
      }
    </style>
  </defs>
  <title>professor</title>
  <g id="Слой_2" data-name="Слой 2">
    <g id="Слой_1-2" data-name="Слой 1"><rect class="cls-1" width="500" height="300"/><path
      class="cls-2"
      d="M218.52,213.55a7.75,7.75,0,0,0-13-8l-.05-.05-3.4,4.86h0a4.55,4.55,0,0,1-8.24-3.44,4.48,4.48,0,0,1,.93-2h0a4.44,4.44,0,0,1,.65-.65l4.59-4.53,0,0a4.72,4.72,0,0,0-1.21-8.1c-3.88-1.52-4.8,1.56-7.36,3a5.89,5.89,0,1,1-3.5-11,6.18,6.18,0,0,0,1.92-.22,7.61,7.61,0,1,0-4.3-14.58c-1.08.36-1.67.74-2.74,1a9.26,9.26,0,0,1-11.09-12.32,9.26,9.26,0,0,1,7.62-5.82,23.19,23.19,0,0,0,2.54-.34,8.93,8.93,0,0,0,3.9-15.65c-2.39-2-6.38-1.88-9.29-1.72a6.31,6.31,0,0,1-2-.2,6.63,6.63,0,0,1,3.27-12.86,7.52,7.52,0,0,1,.84.28l7.15,2.33h0a10,10,0,0,0,12.17-14.33C196.59,107,194.48,106,193,104A8.68,8.68,0,0,1,203.2,90.82c3.57,1.4,4.6,4.78,8.3,6.23a11,11,0,0,0,14.3-6.22c2.89-7.35-5.17-17.19-8.6-23l.08,0a9,9,0,1,1,16.43-6.51c1,6.23-.24,12.79,1,18.58a11,11,0,1,0,21-6.42,20.71,20.71,0,0,1-.94-2.1,4,4,0,1,1,7.85-1.57,11.26,11.26,0,0,1-.38,2.87A11.87,11.87,0,0,0,285,78.44a12.87,12.87,0,0,0,.43-1.33l.07,0a5.89,5.89,0,0,1,10.92,4.43c-.07.19-.15.36-.23.54l.12.06-.09.23a12.18,12.18,0,0,0,18.54,14.29l0,0a6.22,6.22,0,0,1,7.72,9.74l0,.07a10.91,10.91,0,0,0,6.34,20.7c2.1-.37,3.4-1.18,5.46-1.5a9.32,9.32,0,1,1,1,18.53v.11A12.89,12.89,0,1,0,332.75,170v0a4.27,4.27,0,0,1,1.24.28,4.35,4.35,0,0,1-3.19,8.09,13.24,13.24,0,0,0-1.44-.46,10.87,10.87,0,0,0-10,18.81l-.08.1a9.32,9.32,0,0,1-10.47,14.76c-3-1.19-3.27-3.88-5.67-4.82a3.94,3.94,0,0,0-4.69,5.91l0,0c.71,1.76,2.41,3.77.69,5.36a2.57,2.57,0,0,1-4.07-.78h0a7.6,7.6,0,0,0-13.57,1.15,7.74,7.74,0,0,0-.47,1.85c-.28,2.24,1,4,.18,6.17a5.08,5.08,0,0,1-9.46,0,4,4,0,0,0-.24-.83l0-.2h-.05a3.73,3.73,0,0,0-6.81.3c-.54,1.37.2,2.41-.08,4.16a7,7,0,0,1-.4,1.44,6.86,6.86,0,0,1-13.25-2.52c0-2.45.58-2.52.22-4.9a6.5,6.5,0,0,0-12.48-1.41,7,7,0,0,0-.37,1.32h0a11,11,0,0,1-.62,2.18,11.33,11.33,0,1,1-21.09-8.3c.62-1.58,1.51-2.64,2.1-4.14"/><path
      class="cls-3"
      d="M258.22,202.82a39.84,39.84,0,1,1-4.72-79.16,7.77,7.77,0,0,1,.28-1.32L260.12,101v0c-1.79-1.51-2.72-3.22-2.35-4.77.75-3.15,6.53-4.48,12.91-3s11,5.29,10.21,8.45c-.38,1.62-2.11,2.76-4.56,3.28-.05.25-.12.51-.19.76l-6.34,21.37c-.07.23-.15.45-.23.68a39.84,39.84,0,0,1-11.35,75.07"/><path class="cls-4" d="M267.4,191.24a31.39,31.39,0,0,1-46.87-23.68h.09A57.8,57.8,0,0,0,282.83,160a31.39,31.39,0,0,1-15.43,31.24"/><path
      class="cls-4"
      d="M241.83,154.89a8,8,0,0,0-5.63-2.74,8.13,8.13,0,0,0-5.92,2.13,8.47,8.47,0,0,0-2.76,5.76,8.36,8.36,0,0,0,2,6,8.05,8.05,0,0,0,5.62,2.74,8.14,8.14,0,0,0,5.93-2.13,8.45,8.45,0,0,0,2.76-5.76,8.36,8.36,0,0,0-2-6m-6.15,10.85a5.27,5.27,0,1,1,5.27-5.27,5.26,5.26,0,0,1-5.27,5.27"/><path class="cls-4" d="M255.94,167.5h0a17.61,17.61,0,1,0-17.61-17.6,17.6,17.6,0,0,0,17.61,17.6m0-4.12a13.48,13.48,0,1,1,13.48-13.48,13.48,13.48,0,0,1-13.48,13.48m-23.69-2.95a2.78,2.78,0,1,1,2.77-2.77,2.77,2.77,0,0,1-2.77,2.77"/><path class="cls-4" d="M251.24,149.74a6.36,6.36,0,1,1,6.36-6.36,6.36,6.36,0,0,1-6.36,6.36"/></g>
  </g>
</svg>