<svg xmlns="http://www.w3.org/2000/svg" viewBox="0 0 500 299.93"><defs><style>.cls-1{fill:#ccf0f0;}.cls-2{fill:#f5ffff;}.cls-3{fill:#97becf;}.cls-4{fill:#3e9d5b;}</style></defs><title>Ресурс 1</title><g id="Слой_2" data-name="Слой 2"><g id="Слой_1-2" data-name="Слой 1"><rect class="cls-1" width="500" height="297.14" rx="10" ry="10"/><polygon class="cls-2" points="113.1 175.84 187.36 193.86 217.71 149.05 259.55 169.61 256.06 109.81 343.4 186.07 369.67 171.49 389.84 202.49 500 220 500 181.78 429.78 169.12 390.16 182.32 372.11 161.21 348.4 168.06 252.93 91.43 161.31 170.49 112.75 160.58 65.16 184.08 39.39 169.12 0 184.08 0 254.29 102.41 254.29 113.1 175.84"/><polygon class="cls-3" points="113.1 175.84 187.36 193.86 217.71 149.05 259.55 169.61 256.06 109.81 343.4 186.07 369.67 171.49 391.39 199.4 500 207.14 500 254.29 0 254.29 113.1 175.84"/><path class="cls-4" d="M0,203.38l83.2,22.84,28.34,7,61.84-17.57,74.73-7,55.41,21.08,78.59,10.54,37.36-14.05L500,239.69v46.87a10,10,0,0,1-9.93,10l-480,3.37A10,10,0,0,1,0,289.93Z"/></g></g></svg>